<svg version="1.1" xmlns="http://www.w3.org/2000/svg" xmlns:xlink="http://www.w3.org/1999/xlink" viewBox="0 0 30 30" xml:space="preserve" fill="#7289da">
  <path d="M13.14,14.56a1.14,1.14,0,1,0,1,1.13A1.09,1.09,0,0,0,13.14,14.56Zm3.75,0a1.14,1.14,0,1,0,1,1.13A1.09,1.09,0,0,0,16.89,14.56Zm5-8.56H8.11A2.1,2.1,0,0,0,6,8.1V21.89A2.1,2.1,0,0,0,8.11,24H19.77l-.55-1.89L24,26.4V8.1A2.1,2.1,0,0,0,21.89,6Zm-4,13.32s-.37-.44-.68-.83a3.24,3.24,0,0,0,1.86-1.21,5.9,5.9,0,0,1-1.18.6,6.81,6.81,0,0,1-1.49.44,7.26,7.26,0,0,1-2.66,0,8.69,8.69,0,0,1-1.51-.44,6.05,6.05,0,0,1-.75-.35l-.09-.05,0,0-.29-.17a3.2,3.2,0,0,0,1.8,1.2l-.69.85a3.73,3.73,0,0,1-3.14-1.55,13.57,13.57,0,0,1,1.48-5.95,5.12,5.12,0,0,1,2.89-1.07l.1.12a7,7,0,0,0-2.71,1.34s.23-.12.61-.3a7.78,7.78,0,0,1,2.33-.64l.17,0a8.78,8.78,0,0,1,2.08,0,8.43,8.43,0,0,1,3.1,1,6.86,6.86,0,0,0-2.56-1.3l.14-.16a5.12,5.12,0,0,1,2.89,1.07,13.57,13.57,0,0,1,1.48,5.95A3.77,3.77,0,0,1,17.92,19.32Z" />
</svg>
