<svg version="1.1" xmlns="http://www.w3.org/2000/svg" xmlns:xlink="http://www.w3.org/1999/xlink" viewBox="0 0 30 30" xml:space="preserve" fill="#3aa8ff">
  <path d="M14.93,6.43a6.84,6.84,0,0,0-5,2,6.66,6.66,0,0,0-2.07,4.92,7,7,0,0,0,.92,3.4q1.08,2,2.67,2a2.29,2.29,0,0,0,1.67-.68,2.23,2.23,0,0,0,.69-1.64,2.72,2.72,0,0,0-.61-1.53,2.72,2.72,0,0,1-.61-1.53,2.2,2.2,0,0,1,.69-1.62A2.29,2.29,0,0,1,15,11.08a2.23,2.23,0,0,1,1.62.67,2.2,2.2,0,0,1,.68,1.63v4.68a2.17,2.17,0,0,1-.68,1.6,2.27,2.27,0,0,1-1.65.67H12.65A2.29,2.29,0,0,0,11,21a2.28,2.28,0,0,0,0,3.29,2.33,2.33,0,0,0,1.68.68H15a6.86,6.86,0,0,0,5-2A6.61,6.61,0,0,0,22,18.07V13.39a6.64,6.64,0,0,0-2.08-4.92A6.89,6.89,0,0,0,14.93,6.43Zm-4.28-.37s-1-.35-1.91-.58S6.54,5,6.54,5a.42.42,0,0,0-.53.5A16.85,16.85,0,0,0,6.53,8a10.21,10.21,0,0,0,.83,2A7.58,7.58,0,0,1,8.72,7.64,9.05,9.05,0,0,1,10.65,6.06ZM23.46,5s-1.25.23-2.2.46-1.91.58-1.91.58a9.06,9.06,0,0,1,1.94,1.58A7.57,7.57,0,0,1,22.64,10a10.21,10.21,0,0,0,.83-2A16.85,16.85,0,0,0,24,5.51.42.42,0,0,0,23.46,5Z" />
</svg>
