<svg version="1.1" xmlns="http://www.w3.org/2000/svg" xmlns:xlink="http://www.w3.org/1999/xlink" viewBox="0 0 30 30" xml:space="preserve" fill="#ff4500">
  <path d="M27,15.2c0-1.5-1.2-2.7-2.6-2.7c-0.7,0-1.3,0.3-1.8,0.8c-1.8-1.3-4.3-2.2-7-2.3l1.2-5.8L20.6,6
    c0,1,0.9,1.8,1.9,1.8c1,0,1.9-0.9,1.9-1.9S23.5,4,22.5,4c-0.7,0-1.4,0.4-1.7,1.1l-4.4-1c-0.1,0-0.2,0-0.4,0.1
    c-0.1,0.1-0.2,0.2-0.2,0.3L14.6,11c-2.8,0.1-5.3,0.9-7.1,2.3c-0.5-0.5-1.1-0.8-1.8-0.8c-1.5,0-2.6,1.2-2.6,2.7c0,1.1,0.6,2,1.6,2.5
    c0,0.3-0.1,0.5-0.1,0.8C4.5,22.6,9.2,26,15,26s10.5-3.4,10.5-7.5c0-0.3,0-0.5-0.1-0.8C26.4,17.2,27,16.3,27,15.2z M9,17.1
    c0-1.1,0.8-1.9,1.9-1.9c1,0,1.9,0.9,1.9,1.9c0,1.1-0.8,1.9-1.9,1.9C9.8,19.1,9,18.2,9,17.1z M19.5,22.2c-1.3,1.3-3.7,1.4-4.5,1.4
    c-0.7,0-3.2-0.1-4.5-1.4c-0.2-0.2-0.2-0.5,0-0.7c0.2-0.2,0.5-0.2,0.7,0c0.8,0.8,2.5,1.1,3.8,1.1s3-0.3,3.8-1.1
    c0.2-0.2,0.5-0.2,0.7,0C19.6,21.7,19.6,22,19.5,22.2z M19.1,19.1c-1,0-1.9-0.9-1.9-1.9c0-1.1,0.8-1.9,1.9-1.9c1,0,1.9,0.9,1.9,1.9
    C21,18.2,20.2,19.1,19.1,19.1z"/>
</svg>
