<svg version="1.1" xmlns="http://www.w3.org/2000/svg" xmlns:xlink="http://www.w3.org/1999/xlink" viewBox="0 0 30 30" xml:space="preserve" fill="#1da1f2">
  <path d="M23,11q0,.26,0,.52A11.5,11.5,0,0,1,11.29,23,11.75,11.75,0,0,1,5,21.19a8.55,8.55,0,0,0,1,.06,8.31,8.31,0,0,0,5.1-1.73,4.1,4.1,0,0,1-3.83-2.81,4.1,4.1,0,0,0,.77.07,4.15,4.15,0,0,0,1.08-.14,4.06,4.06,0,0,1-3.29-4v-.05a4.14,4.14,0,0,0,1.86.5A4,4,0,0,1,5.84,9.77a4,4,0,0,1,.56-2A11.71,11.71,0,0,0,14.85,12a4,4,0,0,1-.11-.92,4.07,4.07,0,0,1,4.1-4,4.13,4.13,0,0,1,3,1.28,8.3,8.3,0,0,0,2.61-1,4.07,4.07,0,0,1-1.8,2.23A8.29,8.29,0,0,0,25,8.89,8.25,8.25,0,0,1,23,11Z" />
</svg>
