<svg version="1.1" xmlns="http://www.w3.org/2000/svg" xmlns:xlink="http://www.w3.org/1999/xlink" viewBox="0 0 20 20" xml:space="preserve" stroke="#131313" fill="#f6f6f6">
	<polygon points="12.5 6.5 10.5 8.5 9 8.5 8 7.5 8 6 10 4 8.5 2.5 6.5 2.5 1.5 7.5 1.5 10 3 11.5 4 10.5 5.5 10.5 6.5 11.5 6.5 12.5 7.5 12.5 8.5 13.5 8.5 15 7.5 16 10.5 18.5 12 18.5 13.5 17 15 17 16 16 16 14.5 17.5 13 17.5 11.5 12.5 6.5" />
	<polygon points="6.5 11.5 5.5 10.5 4 10.5 2.5 12 2.5 13.5 4 15 6.5 12.5 6.5 11.5" />
	<polygon points="8.5 13.5 7.5 12.5 6.5 12.5 4 15 5.5 16.5 7 16.5 8.5 15 8.5 13.5" />
	<polygon points="13.5 2.5 11.5 2.5 8 6 8 7.5 9 8.5 10.5 8.5 12.5 6.5 17 11 18.5 9.5 18.5 7.5 13.5 2.5" />
	<line x1="13" y1="11.5" x2="16" y2="14.5" />
	<line x1="11" y1="14.5" x2="13.5" y2="17" />
</svg>
