<svg version="1.1" xmlns="http://www.w3.org/2000/svg" xmlns:xlink="http://www.w3.org/1999/xlink" viewBox="0 0 20 20" xml:space="preserve" stroke="#131313" fill="#f6f6f6">
	<path d="M10,16.5H6c-0.2,0-0.5-0.3-0.5-0.5v-2c0-0.8-0.5-1.2-1-1.5s-1-1.4-1-4
	c0-3.2,3.5-6,6.5-6s6.5,2.8,6.5,6c0,2.6-0.5,3.7-1,4s-1,0.7-1,1.5v2c0,0.2-0.3,0.5-0.5,0.5C14,16.5,10,16.5,10,16.5z"/>
	<circle cx="12.5" cy="9" r="1.5"/>
	<circle cx="7.5" cy="9" r="1.5"/>
	<line x1="12.5" y1="14.5" x2="12.5" y2="16.5"/>
	<line x1="7.5" y1="14.5" x2="7.5" y2="16.5"/>
	<line x1="10" y1="14.5" x2="10" y2="16.5"/>
</svg>
