<svg version="1.1" xmlns="http://www.w3.org/2000/svg" xmlns:xlink="http://www.w3.org/1999/xlink" viewBox="0 0 20 20" xml:space="preserve" stroke="#131313" fill="#f6f6f6">
	<line x1="8.7" y1="15.4" x2="4.1" y2="10.9"/>
	<path d="M3.8,5.6C3.5,5.3,3.2,4.9,3.1,4.5L2.5,2.5C2.4,2.2,2.6,1.9,3,2
	l1.9,0.6C5.3,2.8,5.7,3,6.1,3.4l12.3,12.3c0.1,0.1,0.1,0.3,0,0.4l-1.9,1.9c-0.1,0.1-0.3,0.1-0.4,0L3.8,5.6z"/>
	<line x1="15.9" y1="10.9" x2="11.3" y2="15.4"/>
	<path d="M12.3,9.5l3.9-3.9c0.3-0.3,0.6-0.8,0.7-1.2l0.6-1.9
	C17.6,2.2,17.4,1.9,17,2l-1.9,0.6c-0.4,0.1-0.8,0.4-1.2,0.7L10,7.2"/>
	<path d="M7.7,9.5l-6.1,6.1c-0.1,0.1-0.1,0.3,0,0.4l1.9,1.9
	c0.1,0.1,0.3,0.1,0.4,0l6.1-6.1"/>
</svg>
