<svg version="1.1" xmlns="http://www.w3.org/2000/svg" xmlns:xlink="http://www.w3.org/1999/xlink" viewBox="0 0 20 20" xml:space="preserve" stroke="#131313" fill="#f6f6f6">
	<path d="M6.5,2.5h7a0,0,0,0,1,0,0V10A3.5,3.5,0,0,1,10,13.5h0A3.5,3.5,0,0,1,6.5,10V2.5a0,0,0,0,1,0,0Z" stroke-miterlimit="10"/>
	<path d="M13.5,3.5h3a0,0,0,0,1,0,0v5a2,2,0,0,1-2,2h-1a0,0,0,0,1,0,0v-7A0,0,0,0,1,13.5,3.5Z" stroke-miterlimit="10"/>
	<path d="M3.5,3.5h3a0,0,0,0,1,0,0v7a0,0,0,0,1,0,0h-1a2,2,0,0,1-2-2v-5A0,0,0,0,1,3.5,3.5Z" stroke-miterlimit="10"/>
	<line x1="10" y1="13.5" x2="10" y2="18" stroke-miterlimit="10"/>
	<line x1="7" y1="17.5" x2="13" y2="17.5" stroke-miterlimit="10"/>
</svg>
