<svg version="1.1" xmlns="http://www.w3.org/2000/svg" xmlns:xlink="http://www.w3.org/1999/xlink" viewBox="0 0 20 20" xml:space="preserve" stroke="#131313" fill="#f6f6f6">
	<path d="M8.58,9.3,4.83,11.48a2.25,2.25,0,0,0-.18-.41,2.22,2.22,0,1,0-2.18,3.32,2.21,2.21,0,1,0,3.69-.6l3.68-2.13" stroke-linecap="round" stroke-linejoin="round"/>
	<path d="M9.28,6.55l3.27-3.07a3.63,3.63,0,0,1,5.64.87L19,5.75a3.66,3.66,0,0,1-2.07,5.34l-4.29,1.31a2.49,2.49,0,0,1-2.88-1.15L8.84,9.63A2.51,2.51,0,0,1,9.28,6.55Z" stroke-linecap="round"/>
	<path d="M13.5,5.5a2.09,2.09,0,0,1,3,1" stroke-linecap="round"/>
</svg>
