<svg version="1.1" xmlns="http://www.w3.org/2000/svg" xmlns:xlink="http://www.w3.org/1999/xlink" viewBox="0 0 26 26" xml:space="preserve" stroke="#131313" fill="#f6f6f6">
	<polygon points="20 1.6 19 7.1 22.5 7.5 20.5 10.5 23 13 21 14.5 24 19 19 18 18.5 21.5 15.5 20.5 13 24.5 11 21 6.5 24 7 18.5 4.5 17.5 5.5 15 1.5 13 5.5 11 5 8 7.5 7.5 7 2 11 5 13 2.5 15 5 20 1.6" stroke-miterlimit="10"/>
	<circle cx="13" cy="13" r="5.5" stroke-miterlimit="10"/>
	<polyline points="17.8 10.3 16.6 10.2 16.3 11.9 17.6 13.1 18.5 12.3" stroke-miterlimit="10"/>
	<polyline points="17 16.7 16.7 15.6 15 15.8 14.3 17.4 15.3 18" stroke-miterlimit="10"/>
	<polyline points="9 16.7 9.3 15.6 11 15.8 11.7 17.4 10.7 18" stroke-miterlimit="10"/>
	<polyline points="7.5 12.3 8.4 13.1 9.7 11.9 9.4 10.2 8.2 10.3" stroke-miterlimit="10"/>
	<polyline points="11.9 7.6 11.5 8.7 13 9.6 14.5 8.7 14.1 7.6" stroke-miterlimit="10"/>
	<line x1="16.8" y1="11.8" x2="14.9" y2="12.4" stroke-miterlimit="10"/>
	<line x1="15.4" y1="16.2" x2="14.2" y2="14.6" stroke-miterlimit="10"/>
	<line x1="10.6" y1="16.2" x2="11.8" y2="14.6" stroke-miterlimit="10"/>
	<line x1="9.2" y1="11.8" x2="11.1" y2="12.4" stroke-miterlimit="10"/>
	<line x1="13" y1="9" x2="13" y2="11" stroke-miterlimit="10"/>
	<polygon points="13 10.9 15 12.3 14.2 14.7 11.8 14.7 11 12.3 13 10.9" stroke-miterlimit="10"/>
</svg>
