<svg version="1.1" xmlns="http://www.w3.org/2000/svg" xmlns:xlink="http://www.w3.org/1999/xlink" viewBox="0 0 26 26" xml:space="preserve" stroke="#131313" fill="#f6f6f6">
	<path d="M16.1,15.3,14,10.8h0L12.7,8.1a1,1,0,0,0-1.3-.5h0a1,1,0,0,0-.5,1.3l-.8-1.8a1,1,0,1,0-1.8.8L7.8,7A1,1,0,1,0,6,7.9l.6,1.4a1,1,0,1,0-1.8.8l1.9,4.1L7.6,16l-1-.7a1,1,0,1,0-1.1,1.6L9.8,20a4,4,0,0,0,6.3-4.7Z" stroke-linecap="round" stroke-linejoin="round"/>
	<line x1="6.5" y1="8.9" x2="8.6" y2="13.4" stroke-linecap="round" stroke-linejoin="round"/>
	<line x1="8.2" y1="7.8" x2="10.4" y2="12.6" stroke-linecap="round" stroke-linejoin="round"/>
	<line x1="10.1" y1="7.2" x2="12.2" y2="11.7" stroke-linecap="round" stroke-linejoin="round"/>
	<path d="M15.3,8.4l.6-1.3a1,1,0,1,1,1.8.8l.4-.9a1,1,0,0,1,1.8.8l-.6,1.4a1,1,0,0,1,1.8.8l-2.5,5.7.8-.6a1,1,0,0,1,1.1,1.6l-2,1.4" stroke-linecap="round" stroke-linejoin="round"/>
	<line x1="19.5" y1="8.9" x2="17.5" y2="13.1" stroke-linecap="round" stroke-linejoin="round"/>
</svg>
