<svg version="1.1" xmlns="http://www.w3.org/2000/svg" xmlns:xlink="http://www.w3.org/1999/xlink" viewBox="0 0 26 26" xml:space="preserve" stroke="#131313" fill="#f6f6f6">
	<line x1="5" y1="24" x2="8.5" y2="21.5" stroke-linecap="round" stroke-miterlimit="10"/>
	<line x1="2" y1="24" x2="6.5" y2="19.5" stroke-linecap="round" stroke-miterlimit="10"/>
	<line x1="2" y1="21" x2="4.5" y2="17.5" stroke-linecap="round" stroke-miterlimit="10"/>
	<circle cx="13" cy="13.5" r="7" stroke-miterlimit="10"/>
	<polyline points="15.9 7.2 14.7 7.9 15.6 10 17.8 10.2 18.1 8.7" stroke-miterlimit="10"/>
	<polyline points="19.9 14.3 18.8 13.4 17.1 14.8 17.6 17 19.1 16.9" stroke-miterlimit="10"/>
	<polyline points="11.7 20.4 11.1 19 13 17.9 14.9 19 14.3 20.4" stroke-miterlimit="10"/>
	<polyline points="6.9 16.9 8.4 17 8.9 14.8 7.2 13.4 6.1 14.3" stroke-miterlimit="10"/>
	<polyline points="7.9 8.7 8.2 10.2 10.4 10 11.3 7.9 10.1 7.2" stroke-miterlimit="10"/>
	<polygon points="11.4 11.3 14.6 11.3 15.5 14.3 13 16.2 10.5 14.3 11.4 11.3" stroke-miterlimit="10"/>
	<line x1="15.7" y1="9.8" x2="14.5" y2="11.4" stroke-miterlimit="10"/>
	<line x1="17.4" y1="14.9" x2="15.4" y2="14.3" stroke-miterlimit="10"/>
	<line x1="13" y1="18.1" x2="13" y2="16" stroke-miterlimit="10"/>
	<line x1="8.6" y1="14.9" x2="10.6" y2="14.3" stroke-miterlimit="10"/>
	<line x1="10.3" y1="9.8" x2="11.5" y2="11.4" stroke-miterlimit="10"/>
	<path d="M9.8,1.4c.6.9-.8,3-3.2,4.7S1.8,8.5,1.2,7.6s.8-3,3.2-4.7S9.2.5,9.8,1.4Z" stroke-miterlimit="10"/>
</svg>
