<svg version="1.1" xmlns="http://www.w3.org/2000/svg" xmlns:xlink="http://www.w3.org/1999/xlink" viewBox="0 0 26 26" xml:space="preserve" stroke="#131313" fill="#f6f6f6">
	<path d="M13,20.5H9a.54.54,0,0,1-.5-.5V18a1.59,1.59,0,0,0-1-1.5c-.54-.27-1-1.35-1-4,0-3.2,3.46-6,6.5-6s6.5,2.8,6.5,6c0,2.65-.46,3.73-1,4a1.59,1.59,0,0,0-1,1.5v2a.54.54,0,0,1-.5.5Z" stroke-linecap="round"/>
	<circle cx="15.5" cy="13" r="1.5" stroke-linecap="round"/>
	<circle cx="10.5" cy="13" r="1.5" stroke-linecap="round"/>
	<line x1="15.5" y1="18.5" x2="15.5" y2="20.5" stroke-linecap="round"/>
	<line x1="10.5" y1="18.5" x2="10.5" y2="20.5" stroke-linecap="round"/>
	<line x1="13" y1="18.5" x2="13" y2="20.5" stroke-linecap="round"/>
</svg>
