<?xml version="1.0" encoding="utf-8"?>
<!-- Generator: Adobe Illustrator 19.0.1, SVG Export Plug-In . SVG Version: 6.00 Build 0)  -->
<svg version="1.1" id="Layer_1" xmlns="http://www.w3.org/2000/svg" xmlns:xlink="http://www.w3.org/1999/xlink" x="0px" y="0px"
	 viewBox="0 0 10 10" xml:space="preserve">
<path fill="#FFFFFF" d="M9.15,2.07C9.3,1.88,9.57,1.84,9.76,1.99C9.95,2.13,9.99,2.4,9.85,2.59L9.15,2.07z M0.15,2.59
	C0.01,2.4,0.05,2.13,0.24,1.99c0.19-0.14,0.46-0.1,0.61,0.09L0.15,2.59z M5.8,7.27l0.35,0.26L5.8,7.27z M4.2,7.27L3.85,7.53
	L4.2,7.27z M9.85,2.59l-3.7,4.93L5.45,7.01l3.7-4.93L9.85,2.59z M3.85,7.53l-3.7-4.93l0.69-0.52l3.7,4.93L3.85,7.53z M6.15,7.53
	c-0.57,0.76-1.72,0.76-2.29,0l0.69-0.52c0.23,0.3,0.68,0.3,0.91,0L6.15,7.53z"/>
</svg>
